<svg xmlns="http://www.w3.org/2000/svg" xmlns:xlink="http://www.w3.org/1999/xlink" width="263" height="53.38" viewBox="0 0 263 53.38">
  <defs>
    <linearGradient id="linear-gradient" x1="0.5" x2="0.5" y2="1" gradientUnits="objectBoundingBox">
      <stop offset="0" stop-color="#0575e5"/>
      <stop offset="1" stop-color="#011a77"/>
    </linearGradient>
  </defs>
  <g id="Group_6000" data-name="Group 6000" transform="translate(-388.598 -82.008)">
    <path id="Path_369" data-name="Path 369" d="M410.514,87.834a11.176,11.176,0,0,0-4.405-3.936,13.068,13.068,0,0,0-11.361,0,11.175,11.175,0,0,0-4.406,3.936,11.6,11.6,0,0,0-1.743,6.507v39.6h4.822v-39.6a10.263,10.263,0,0,1,1.06-4.887,7.256,7.256,0,0,1,2.61-2.884,6.489,6.489,0,0,1,6.674,0,7.269,7.269,0,0,1,2.612,2.883,10.277,10.277,0,0,1,1.06,4.888v14.253h-11.61v2.889h11.61v22.459h4.821v-39.6A11.6,11.6,0,0,0,410.514,87.834Z" transform="translate(0 -0.027)" fill="#474748"/>
    <path id="Path_370" data-name="Path 370" d="M438.715,84.363v39.2a10,10,0,0,1-1.058,4.842,7.415,7.415,0,0,1-2.579,2.852,6.494,6.494,0,0,1-6.663,0,7.407,7.407,0,0,1-2.578-2.852,10,10,0,0,1-1.057-4.842v-39.2h-4.74v39.2a11.394,11.394,0,0,0,1.746,6.471,11,11,0,0,0,4.365,3.854,13.037,13.037,0,0,0,11.193,0,11.019,11.019,0,0,0,4.366-3.854,11.394,11.394,0,0,0,1.746-6.471v-39.2Z" transform="translate(-1.416 -0.106)" fill="#474748"/>
    <path id="Path_371" data-name="Path 371" d="M448.128,84.026v2.888h9.34v47.093h4.74V86.914h9.337V84.026Z" transform="translate(-2.68 -0.091)" fill="#474748"/>
    <path id="Path_372" data-name="Path 372" d="M497.805,87.66a11.47,11.47,0,0,0-4.443-3.932,13.256,13.256,0,0,0-11.441,0,11.134,11.134,0,0,0-6.229,10.524v28.9a11.134,11.134,0,0,0,6.229,10.526,13.173,13.173,0,0,0,11.441,0,11.426,11.426,0,0,0,4.443-3.929,11.552,11.552,0,0,0,1.788-6.594v-28.9A11.552,11.552,0,0,0,497.805,87.66Zm-3.034,6.592v28.9a10.207,10.207,0,0,1-1.057,4.922,7.51,7.51,0,0,1-2.658,2.892,6.541,6.541,0,0,1-6.829,0,7.48,7.48,0,0,1-2.655-2.889,10.206,10.206,0,0,1-1.059-4.925v-28.9a10.422,10.422,0,0,1,1.061-4.966,7.461,7.461,0,0,1,2.653-2.928,6.526,6.526,0,0,1,6.829,0,7.472,7.472,0,0,1,2.655,2.926A10.457,10.457,0,0,1,494.771,94.253Z" transform="translate(-3.921 -0.019)" fill="#474748"/>
    <g id="Group_169" data-name="Group 169" transform="translate(501.039 82.008)">
      <g id="Group_168" data-name="Group 168">
        <path id="Path_373" data-name="Path 373" d="M524.468,83.495a13.744,13.744,0,0,0-11.74,0,11.572,11.572,0,0,0-4.574,4.083,12.016,12.016,0,0,0-1.814,6.744v40.03h5.677V94.322a9.806,9.806,0,0,1,1.01-4.684,6.791,6.791,0,0,1,2.45-2.719,6.152,6.152,0,0,1,6.236,0,6.824,6.824,0,0,1,2.453,2.719,9.855,9.855,0,0,1,1.01,4.684v40.03h5.676V94.322a12.024,12.024,0,0,0-1.814-6.744A11.59,11.59,0,0,0,524.468,83.495Z" transform="translate(-506.34 -82.016)" fill="url(#linear-gradient)"/>
        <path id="Path_374" data-name="Path 374" d="M555.056,83.325a13.917,13.917,0,0,0-11.817,0,11.564,11.564,0,0,0-6.471,10.909v28.9a11.567,11.567,0,0,0,6.471,10.911,13.636,13.636,0,0,0,11.817,0,11.553,11.553,0,0,0,6.47-10.907v-28.9a11.561,11.561,0,0,0-6.47-10.909Zm.791,10.909v28.9a9.816,9.816,0,0,1-1,4.717,7.1,7.1,0,0,1-2.507,2.731,6.212,6.212,0,0,1-6.385,0,7.082,7.082,0,0,1-2.5-2.728,9.816,9.816,0,0,1-1-4.719v-28.9a10.026,10.026,0,0,1,1.008-4.764,7.018,7.018,0,0,1,2.5-2.763,6.089,6.089,0,0,1,6.383,0,7.03,7.03,0,0,1,2.5,2.765A10.05,10.05,0,0,1,555.846,94.234Z" transform="translate(-507.71 -82.009)" fill="url(#linear-gradient)"/>
        <path id="Path_375" data-name="Path 375" d="M585.991,83.495a13.726,13.726,0,0,0-11.739,0,11.594,11.594,0,0,0-4.573,4.083,12.01,12.01,0,0,0-1.814,6.744v40.03h5.6V94.322a9.82,9.82,0,0,1,1.009-4.684,6.81,6.81,0,0,1,2.453-2.719,6.451,6.451,0,0,1,6.395,0,6.848,6.848,0,0,1,2.454,2.719,9.849,9.849,0,0,1,1.009,4.684v5.232a10.061,10.061,0,0,1-.55,3.339,8.936,8.936,0,0,1-1.482,2.72,6.9,6.9,0,0,1-2.11,1.763,5.166,5.166,0,0,1-2.437.609h-4.372v3.908H580.2a4.889,4.889,0,0,1,2.415.638,7.713,7.713,0,0,1,2.141,1.787,8.555,8.555,0,0,1,1.475,2.637,9.677,9.677,0,0,1,.548,3.289v14.109h5.6V120.243a12.054,12.054,0,0,0-5.65-10.261,12.885,12.885,0,0,0,3.585-3.553,11.993,11.993,0,0,0,2.065-6.875V94.322a12.006,12.006,0,0,0-1.816-6.744A11.584,11.584,0,0,0,585.991,83.495Z" transform="translate(-509.11 -82.016)" fill="url(#linear-gradient)"/>
        <path id="Path_376" data-name="Path 376" d="M625.033,82.641a9.821,9.821,0,0,0-5.545-.272,8.627,8.627,0,0,0-4.248,2.41A8.605,8.605,0,0,0,611,82.369a9.937,9.937,0,0,0-5.578.27,10.056,10.056,0,0,0-4.546,3.251,8.8,8.8,0,0,0-1.913,5.691v42.768h5.676V91.581a6.3,6.3,0,0,1,1.236-4.288c1.587-1.756,3.556-1.751,5.185.008a6.183,6.183,0,0,1,1.268,4.28v42.768H618V92.567h.081v-.986a6.293,6.293,0,0,1,1.234-4.288,3.167,3.167,0,0,1,5.137,0,6.3,6.3,0,0,1,1.237,4.29v42.768h5.677V92.567h.079v-.986a8.813,8.813,0,0,0-1.911-5.691A10.126,10.126,0,0,0,625.033,82.641Z" transform="translate(-510.51 -82.012)" fill="url(#linear-gradient)"/>
        <path id="Path_377" data-name="Path 377" d="M661.027,87.578a11.6,11.6,0,0,0-4.574-4.083,13.731,13.731,0,0,0-11.74,0,11.625,11.625,0,0,0-4.574,4.083,12.032,12.032,0,0,0-1.811,6.744v40.03H644V94.322a9.818,9.818,0,0,1,1.012-4.687,6.81,6.81,0,0,1,2.45-2.716,6.021,6.021,0,0,1,3.118-.868,5.945,5.945,0,0,1,3.119.868,6.821,6.821,0,0,1,2.451,2.719,9.818,9.818,0,0,1,1.012,4.684v13.825l-10.745.006-.054,3.74h10.8v22.459h5.677V94.322A12.035,12.035,0,0,0,661.027,87.578Z" transform="translate(-512.283 -82.016)" fill="url(#linear-gradient)"/>
      </g>
    </g>
  </g>
</svg>
